<svg
  width="24"
  height="24"
  viewBox="0 0 24 24"
  fill="none"
  xmlns="http://www.w3.org/2000/svg"
>
<path
    opacity="0.3"
    d="M 18.75 5.25 L 18.75 10.5 C 18.75 12.300781 18.03125 14.023438 16.753906 15.292969 C 15.476562 16.558594 13.746094 17.261719 11.949219 17.25 C 8.226562 17.222656 5.25 14.136719 5.25 10.414062 L 5.25 5.25 C 5.25 4.835938 5.585938 4.5 6 4.5 L 18 4.5 C 18.414062 4.5 18.75 4.835938 18.75 5.25 Z M 18.75 5.25 "
    fill="currentColor"
  />

<path
    d="M 21.75 6 L 19.5 6 L 19.5 5.25 C 19.5 4.421875 18.828125 3.75 18 3.75 L 6 3.75 C 5.171875 3.75 4.5 4.421875 4.5 5.25 L 4.5 6 L 2.238281 6 C 1.410156 6 0.738281 6.671875 0.738281 7.5 L 0.738281 9 C 0.742188 11.070312 2.417969 12.746094 4.488281 12.75 L 4.867188 12.75 C 5.769531 15.554688 8.253906 17.65625 11.25 17.960938 L 11.25 20.25 L 9 20.25 C 8.585938 20.25 8.25 20.585938 8.25 21 C 8.25 21.414062 8.585938 21.75 9 21.75 L 15 21.75 C 15.414062 21.75 15.75 21.414062 15.75 21 C 15.75 20.585938 15.414062 20.25 15 20.25 L 12.75 20.25 L 12.75 17.964844 C 15.734375 17.660156 18.253906 15.613281 19.15625 12.75 L 19.5 12.75 C 21.570312 12.746094 23.246094 11.070312 23.25 9 L 23.25 7.5 C 23.25 6.671875 22.578125 6 21.75 6 Z M 4.488281 11.25 C 3.246094 11.25 2.238281 10.242188 2.238281 9 L 2.238281 7.5 L 4.5 7.5 L 4.5 10.414062 C 4.5 10.695312 4.515625 10.972656 4.546875 11.25 Z M 16.226562 14.757812 C 15.105469 15.878906 13.585938 16.503906 12 16.5 C 11.984375 16.5 11.96875 16.5 11.953125 16.5 C 8.671875 16.476562 6 13.746094 6 10.414062 L 6 5.25 L 18 5.25 L 18 10.5 C 18.003906 12.101562 17.367188 13.632812 16.226562 14.757812 Z M 21.75 9 C 21.75 10.242188 20.742188 11.25 19.5 11.25 L 19.464844 11.25 C 19.488281 11.003906 19.5 10.753906 19.5 10.5 L 19.5 7.5 L 21.75 7.5 Z M 21.75 9 "
    fill="currentColor"
  />
</svg>
