<svg
  width="24"
  height="24"
  viewBox="0 0 24 24"
  fill="none"
  xmlns="http://www.w3.org/2000/svg"
>
<path
    opacity="0.3"
    d="M 9.527344 6.632812 C 9.554688 6.679688 9.625 6.800781 10.074219 6.886719 C 10.179688 6.90625 10.289062 6.914062 10.402344 6.914062 C 10.773438 6.914062 11.121094 6.808594 11.457031 6.703125 C 11.777344 6.601562 12.078125 6.507812 12.378906 6.507812 L 12.394531 6.507812 C 12.84375 6.511719 13.265625 6.652344 13.710938 6.800781 C 13.90625 6.863281 14.105469 6.933594 14.308594 6.984375 C 14.394531 7.007812 14.449219 6.984375 14.484375 6.964844 C 15.484375 6.4375 16.355469 5.734375 16.929688 4.984375 C 17.21875 4.613281 17.460938 4.113281 17.675781 3.457031 C 17.773438 3.152344 17.882812 2.703125 17.691406 2.273438 C 17.441406 1.722656 16.785156 1.660156 16.316406 1.660156 C 16.171875 1.660156 15.308594 1.695312 15.082031 1.695312 C 14.503906 1.695312 13.832031 1.652344 13.199219 1.328125 C 12.925781 1.1875 12.667969 1.007812 12.398438 0.8125 C 11.984375 0.523438 11.558594 0.222656 11.054688 0.0664062 C 10.917969 0.0234375 10.777344 0 10.640625 0 C 9.691406 0 9.117188 1.058594 8.929688 1.40625 C 8.660156 1.90625 8.347656 2.582031 8.34375 3.371094 C 8.34375 4.089844 8.59375 4.761719 8.8125 5.269531 C 9.023438 5.757812 9.273438 6.191406 9.527344 6.632812 Z M 9.527344 6.632812 "
    fill="currentColor"
  />
<path
    d="M 10.390625 13.71875 C 10.390625 14.421875 10.953125 14.730469 11.582031 14.925781 L 11.582031 12.351562 C 11.300781 12.414062 11.054688 12.523438 10.859375 12.683594 C 10.554688 12.9375 10.390625 13.292969 10.390625 13.71875 Z M 10.390625 13.71875 "
    fill="currentColor"
  />
<path
    d="M 13.210938 16.820312 L 13.125 16.796875 L 13.125 19.53125 C 13.363281 19.453125 13.578125 19.335938 13.757812 19.179688 C 14.082031 18.898438 14.265625 18.5 14.265625 18.09375 C 14.265625 17.460938 13.894531 17.007812 13.210938 16.820312 Z M 13.210938 16.820312 "
    fill="currentColor"
  />
<path
    d="M 19.753906 13.347656 C 18.8125 11.625 17.480469 10.222656 16.058594 8.878906 C 15.664062 8.503906 15.296875 8.175781 14.914062 7.851562 C 14.566406 7.730469 13.859375 7.726562 13.441406 7.589844 C 13.054688 7.460938 12.644531 7.320312 12.230469 7.34375 C 11.847656 7.367188 11.492188 7.503906 11.121094 7.59375 C 10.707031 7.691406 10.308594 7.71875 9.890625 7.640625 C 9.890625 7.640625 9.320312 7.558594 7.972656 6.558594 C 7.425781 6.152344 6.839844 5.789062 6.164062 5.644531 C 5.523438 5.503906 5.25 6.488281 5.894531 6.628906 C 6.507812 6.761719 7.011719 7.113281 7.511719 7.480469 C 7.511719 7.480469 7.515625 7.480469 7.515625 7.480469 C 6.8125 7.574219 6.160156 7.855469 5.480469 8.039062 C 4.84375 8.214844 5.113281 9.199219 5.75 9.023438 C 6.4375 8.835938 7.121094 8.507812 7.839844 8.472656 C 7.957031 8.464844 8.066406 8.480469 8.171875 8.5 C 6.566406 9.820312 5.082031 11.28125 4.023438 13.097656 C 3.109375 14.671875 2.699219 16.5 3.25 18.273438 C 3.570312 19.308594 4.183594 20.230469 4.902344 21.03125 C 5.53125 21.734375 6.234375 22.363281 7.070312 22.804688 C 8.574219 23.601562 10.328125 23.921875 12.015625 23.992188 C 13.824219 24.066406 15.6875 23.816406 17.355469 23.089844 C 18.871094 22.429688 20.160156 21.277344 20.699219 19.683594 C 21.410156 17.574219 20.785156 15.230469 19.753906 13.347656 Z M 14.804688 19.96875 C 14.375 20.320312 13.8125 20.542969 13.125 20.632812 L 13.125 21.390625 C 13.125 21.816406 12.78125 22.160156 12.355469 22.160156 C 11.925781 22.160156 11.582031 21.816406 11.582031 21.390625 L 11.582031 20.625 C 10.699219 20.503906 10.128906 20.191406 9.789062 19.917969 C 9.304688 19.53125 9.015625 19.011719 9.015625 18.535156 C 9.015625 18.160156 9.238281 17.910156 9.570312 17.910156 C 9.863281 17.910156 10.007812 18.097656 10.253906 18.453125 C 10.515625 18.835938 10.855469 19.328125 11.582031 19.539062 L 11.582031 16.363281 L 10.96875 16.191406 C 9.542969 15.792969 9.039062 14.601562 9.039062 13.835938 C 9.039062 12.949219 9.402344 12.230469 10.085938 11.765625 C 10.488281 11.492188 11.003906 11.308594 11.582031 11.230469 L 11.582031 10.472656 C 11.582031 10.046875 11.925781 9.703125 12.355469 9.703125 C 12.78125 9.703125 13.125 10.046875 13.125 10.472656 L 13.125 11.289062 C 13.566406 11.390625 14 11.558594 14.363281 11.785156 C 14.726562 12.007812 15.339844 12.480469 15.339844 13.144531 C 15.339844 13.546875 15.023438 13.726562 14.710938 13.726562 C 14.476562 13.726562 14.359375 13.589844 14.128906 13.304688 C 13.910156 13.027344 13.632812 12.679688 13.125 12.476562 L 13.125 15.320312 L 13.625 15.445312 C 15.15625 15.828125 15.691406 16.898438 15.691406 17.933594 C 15.691406 18.789062 15.382812 19.492188 14.804688 19.96875 Z M 14.804688 19.96875 "
    fill="currentColor"
  />
</svg>
