<svg
  width="24"
  height="24"
  viewBox="0 0 24 24"
  fill="none"
  xmlns="http://www.w3.org/2000/svg"
>
<path
    d="M 21.117188 4.949219 L 16.457031 4.949219 L 16.457031 4.210938 C 16.457031 3.027344 15.496094 2.066406 14.308594 2.066406 L 9.65625 2.066406 C 8.472656 2.066406 7.511719 3.027344 7.511719 4.210938 L 7.511719 4.949219 L 2.863281 4.949219 C 1.28125 4.949219 0 6.230469 0 7.8125 L 0 19.050781 C 0 20.632812 1.28125 21.914062 2.863281 21.914062 L 21.117188 21.914062 C 22.695312 21.914062 23.980469 20.632812 23.980469 19.050781 L 23.980469 7.8125 C 23.980469 6.230469 22.695312 4.949219 21.117188 4.949219 Z M 8.941406 4.210938 C 8.941406 3.816406 9.261719 3.496094 9.65625 3.496094 L 14.308594 3.496094 C 14.703125 3.496094 15.027344 3.816406 15.027344 4.210938 L 15.027344 4.949219 L 8.941406 4.949219 Z M 14.660156 11.519531 C 14.28125 11.644531 13.878906 11.441406 13.753906 11.066406 C 13.601562 10.609375 13.046875 10.074219 11.988281 10.074219 C 11.121094 10.074219 10.609375 10.65625 10.546875 11.230469 C 10.472656 11.945312 11.066406 12.507812 12.136719 12.730469 C 14.328125 13.1875 14.96875 14.660156 14.855469 15.777344 C 14.734375 16.9375 13.855469 17.855469 12.707031 18.132812 L 12.707031 18.925781 C 12.707031 19.320312 12.386719 19.640625 11.988281 19.640625 C 11.59375 19.640625 11.273438 19.320312 11.273438 18.925781 L 11.273438 18.15625 C 9.90625 17.921875 9.128906 17.027344 8.867188 16.246094 C 8.742188 15.875 8.945312 15.46875 9.320312 15.34375 C 9.695312 15.214844 10.101562 15.417969 10.226562 15.792969 C 10.378906 16.25 10.933594 16.785156 11.988281 16.785156 C 12.859375 16.785156 13.371094 16.203125 13.429688 15.632812 C 13.503906 14.914062 12.910156 14.355469 11.84375 14.132812 C 9.652344 13.671875 9.007812 12.203125 9.125 11.082031 C 9.246094 9.921875 10.121094 9.003906 11.273438 8.730469 L 11.273438 7.933594 C 11.273438 7.539062 11.59375 7.21875 11.988281 7.21875 C 12.382812 7.21875 12.707031 7.539062 12.707031 7.933594 L 12.707031 8.707031 C 14.074219 8.941406 14.847656 9.832031 15.109375 10.613281 C 15.234375 10.988281 15.035156 11.394531 14.660156 11.519531 Z M 14.660156 11.519531 "
    fill="currentColor"
  />
</svg>
