<svg
  width="24"
  height="24"
  viewBox="0 0 24 24"
  fill="none"
  xmlns="http://www.w3.org/2000/svg"
>

<path
    opacity="0.3"
    d="M 21 5.25 L 21 18.75 C 21 19.164062 20.664062 19.5 20.25 19.5 L 3.75 19.5 C 3.335938 19.5 3 19.164062 3 18.75 L 3 5.25 C 3 4.835938 3.335938 4.5 3.75 4.5 L 20.25 4.5 C 20.664062 4.5 21 4.835938 21 5.25 Z M 21 5.25 "
    fill="currentColor"
  />
<path
    d="M 18.75 7.5 L 18.75 10.5 C 18.75 10.914062 18.414062 11.25 18 11.25 C 17.585938 11.25 17.25 10.914062 17.25 10.5 L 17.25 8.25 L 15 8.25 C 14.585938 8.25 14.25 7.914062 14.25 7.5 C 14.25 7.085938 14.585938 6.75 15 6.75 L 18 6.75 C 18.414062 6.75 18.75 7.085938 18.75 7.5 Z M 9 15.75 L 6.75 15.75 L 6.75 13.5 C 6.75 13.085938 6.414062 12.75 6 12.75 C 5.585938 12.75 5.25 13.085938 5.25 13.5 L 5.25 16.5 C 5.25 16.914062 5.585938 17.25 6 17.25 L 9 17.25 C 9.414062 17.25 9.75 16.914062 9.75 16.5 C 9.75 16.085938 9.414062 15.75 9 15.75 Z M 21.75 5.25 L 21.75 18.75 C 21.75 19.578125 21.078125 20.25 20.25 20.25 L 3.75 20.25 C 2.921875 20.25 2.25 19.578125 2.25 18.75 L 2.25 5.25 C 2.25 4.421875 2.921875 3.75 3.75 3.75 L 20.25 3.75 C 21.078125 3.75 21.75 4.421875 21.75 5.25 Z M 20.25 18.75 L 20.25 5.25 L 3.75 5.25 L 3.75 18.75 Z M 20.25 18.75 "
    fill="currentColor"
  />
</svg>
