<svg
  width="24"
  height="24"
  viewBox="0 0 24 24"
  fill="none"
  xmlns="http://www.w3.org/2000/svg"
>

<path
    opacity="0.3"
    d="M 12 5.25 C 4.5 5.25 1.5 12 1.5 12 C 1.5 12 4.5 18.75 12 18.75 C 19.5 18.75 22.5 12 22.5 12 C 22.5 12 19.5 5.25 12 5.25 Z M 12 15.75 C 9.929688 15.75 8.25 14.070312 8.25 12 C 8.25 9.929688 9.929688 8.25 12 8.25 C 14.070312 8.25 15.75 9.929688 15.75 12 C 15.75 14.070312 14.070312 15.75 12 15.75 Z M 12 15.75 "
    fill="currentColor"
  />
<path
    d="M 5.054688 3.246094 C 4.777344 2.9375 4.300781 2.917969 3.996094 3.195312 C 3.6875 3.472656 3.667969 3.949219 3.945312 4.253906 L 5.75 6.238281 C 2.34375 8.328125 0.878906 11.546875 0.816406 11.695312 C 0.726562 11.890625 0.726562 12.109375 0.816406 12.304688 C 0.847656 12.378906 1.640625 14.140625 3.40625 15.90625 C 5.757812 18.257812 8.730469 19.5 12 19.5 C 13.679688 19.507812 15.34375 19.164062 16.878906 18.484375 L 18.945312 20.753906 C 19.222656 21.0625 19.699219 21.082031 20.003906 20.804688 C 20.3125 20.527344 20.332031 20.050781 20.054688 19.746094 Z M 9.492188 10.355469 L 13.398438 14.652344 C 12.1875 15.292969 10.699219 15.03125 9.78125 14.019531 C 8.859375 13.007812 8.742188 11.5 9.492188 10.355469 Z M 12 18 C 9.113281 18 6.59375 16.949219 4.507812 14.882812 C 3.648438 14.03125 2.917969 13.058594 2.339844 12 C 2.777344 11.175781 4.183594 8.871094 6.777344 7.371094 L 8.460938 9.222656 C 7.105469 10.949219 7.195312 13.402344 8.671875 15.027344 C 10.148438 16.652344 12.582031 16.972656 14.429688 15.789062 L 15.808594 17.304688 C 14.59375 17.769531 13.300781 18.007812 12 18 Z M 12 18 "
    fill="currentColor"
  />
<path
    d="M 23.183594 11.695312 C 23.152344 11.621094 22.359375 9.859375 20.59375 8.09375 C 18.242188 5.742188 15.269531 4.5 12 4.5 C 11.308594 4.5 10.617188 4.554688 9.9375 4.667969 C 9.53125 4.738281 9.253906 5.121094 9.324219 5.53125 C 9.390625 5.9375 9.777344 6.214844 10.183594 6.148438 C 10.785156 6.046875 11.390625 6 12 6 C 14.886719 6 17.40625 7.046875 19.492188 9.117188 C 20.351562 9.96875 21.082031 10.9375 21.660156 12 C 20.984375 13.238281 20.105469 14.351562 19.058594 15.292969 C 18.75 15.570312 18.722656 16.046875 19 16.351562 C 19.273438 16.660156 19.75 16.6875 20.058594 16.410156 C 22.195312 14.496094 23.144531 12.394531 23.183594 12.304688 C 23.273438 12.109375 23.273438 11.890625 23.183594 11.695312 Z M 23.183594 11.695312 "
    fill="currentColor"
  />
<path
    d="M 14.988281 11.71875 C 15.023438 12.101562 15.347656 12.398438 15.734375 12.398438 C 15.757812 12.398438 15.78125 12.394531 15.804688 12.394531 C 16.214844 12.355469 16.519531 11.988281 16.480469 11.578125 C 16.289062 9.585938 14.808594 7.960938 12.847656 7.578125 C 12.4375 7.503906 12.046875 7.769531 11.96875 8.175781 C 11.890625 8.582031 12.160156 8.976562 12.566406 9.054688 C 13.875 9.308594 14.859375 10.390625 14.988281 11.71875 Z M 14.988281 11.71875 "
    fill="currentColor"
  />
</svg>
