<svg
  width="24"
  height="24"
  viewBox="0 0 24 24"
  fill="none"
  xmlns="http://www.w3.org/2000/svg"
>
<path
    opacity="0.3"
    d="M 12 5.25 C 4.5 5.25 1.5 12 1.5 12 C 1.5 12 4.5 18.75 12 18.75 C 19.5 18.75 22.5 12 22.5 12 C 22.5 12 19.5 5.25 12 5.25 Z M 12 15.75 C 9.929688 15.75 8.25 14.070312 8.25 12 C 8.25 9.929688 9.929688 8.25 12 8.25 C 14.070312 8.25 15.75 9.929688 15.75 12 C 15.75 14.070312 14.070312 15.75 12 15.75 Z M 12 15.75 "
    fill="currentColor"
  />

<path
    d="M 23.183594 11.695312 C 23.152344 11.621094 22.359375 9.859375 20.59375 8.09375 C 18.242188 5.742188 15.269531 4.5 12 4.5 C 8.730469 4.5 5.757812 5.742188 3.40625 8.09375 C 1.640625 9.859375 0.847656 11.621094 0.8125 11.695312 C 0.726562 11.890625 0.726562 12.109375 0.8125 12.304688 C 0.847656 12.378906 1.640625 14.140625 3.40625 15.90625 C 5.757812 18.257812 8.730469 19.5 12 19.5 C 15.269531 19.5 18.242188 18.257812 20.59375 15.90625 C 22.359375 14.140625 23.152344 12.378906 23.183594 12.304688 C 23.269531 12.109375 23.269531 11.890625 23.183594 11.695312 Z M 12 18 C 9.113281 18 6.59375 16.949219 4.503906 14.882812 C 3.648438 14.03125 2.917969 13.058594 2.339844 12 C 2.917969 10.9375 3.648438 9.96875 4.503906 9.117188 C 6.59375 7.046875 9.113281 6 12 6 C 14.886719 6 17.40625 7.046875 19.492188 9.117188 C 20.351562 9.96875 21.082031 10.9375 21.660156 12 C 20.984375 13.261719 18.039062 18 12 18 Z M 12 18 "
    fill="currentColor"
  />
<path
    d="M 12 7.5 C 9.515625 7.5 7.5 9.515625 7.5 12 C 7.5 14.484375 9.515625 16.5 12 16.5 C 14.484375 16.5 16.5 14.484375 16.5 12 C 16.496094 9.515625 14.484375 7.503906 12 7.5 Z M 12 15 C 10.34375 15 9 13.65625 9 12 C 9 10.34375 10.34375 9 12 9 C 13.65625 9 15 10.34375 15 12 C 14.996094 13.65625 13.65625 15 12 15 Z M 12 15 "
    fill="currentColor"
  />
</svg>
