<svg
  width="24"
  height="24"
  viewBox="0 0 24 24"
  fill="none"
  xmlns="http://www.w3.org/2000/svg"
>
<path
    opacity="0.3"
    d="M 13.136719 16.742188 C 13.28125 16.25 13.488281 15.78125 13.746094 15.351562 C 12.976562 15.1875 12.210938 15.082031 11.332031 15.039062 L 11.332031 11.929688 L 14.667969 11.929688 C 14.621094 12.867188 14.476562 13.761719 14.261719 14.609375 C 14.753906 14 15.359375 13.488281 16.046875 13.105469 C 16.097656 12.703125 16.132812 12.308594 16.152344 11.929688 L 19.71875 11.929688 C 19.707031 12.070312 19.6875 12.210938 19.671875 12.351562 C 20.175781 12.40625 20.664062 12.515625 21.128906 12.683594 C 21.199219 12.191406 21.234375 11.6875 21.234375 11.179688 C 21.234375 5.324219 16.472656 0.5625 10.617188 0.5625 C 4.761719 0.5625 0 5.324219 0 11.179688 C 0 17.035156 4.761719 21.796875 10.617188 21.796875 C 11.652344 21.796875 12.652344 21.648438 13.601562 21.371094 C 13.144531 20.507812 12.882812 19.527344 12.882812 18.488281 C 12.882812 18.289062 12.894531 18.09375 12.914062 17.902344 C 12.492188 18.617188 12 19.234375 11.332031 19.722656 L 11.332031 16.527344 C 11.953125 16.5625 12.550781 16.632812 13.136719 16.742188 Z M 19.71875 10.445312 L 16.152344 10.445312 C 16.085938 8.960938 15.851562 7.769531 15.46875 6.5625 C 16.289062 6.285156 17.0625 5.9375 17.773438 5.519531 C 18.863281 6.894531 19.566406 8.464844 19.71875 10.445312 Z M 16.726562 4.398438 C 16.171875 4.699219 15.574219 4.957031 14.945312 5.171875 C 14.488281 4.132812 13.910156 3.207031 13.238281 2.433594 C 14.550781 2.824219 15.738281 3.503906 16.726562 4.398438 Z M 11.332031 2.648438 C 12.320312 3.367188 12.925781 4.371094 13.476562 5.5625 C 12.785156 5.707031 12.074219 5.800781 11.332031 5.84375 Z M 11.332031 7.328125 C 12.320312 7.28125 13.167969 7.164062 14.03125 6.964844 C 14.375 8.039062 14.605469 9.207031 14.667969 10.445312 L 11.332031 10.445312 Z M 7.992188 2.433594 C 7.304688 3.21875 6.722656 4.160156 6.261719 5.214844 C 5.621094 5.007812 5.011719 4.753906 4.445312 4.453125 C 5.449219 3.535156 6.65625 2.835938 7.992188 2.433594 Z M 3.414062 5.582031 C 4.132812 5.992188 4.914062 6.339844 5.746094 6.613281 C 5.375 7.804688 5.148438 9.207031 5.085938 10.445312 L 1.515625 10.445312 C 1.664062 8.714844 2.347656 6.945312 3.414062 5.582031 Z M 1.515625 11.929688 L 5.082031 11.929688 C 5.144531 13.167969 5.375 14.570312 5.75 15.765625 C 4.921875 16.039062 4.136719 16.382812 3.417969 16.796875 C 2.351562 15.429688 1.664062 13.664062 1.515625 11.929688 Z M 4.453125 17.914062 C 5.019531 17.613281 5.628906 17.359375 6.269531 17.152344 C 6.730469 18.203125 7.308594 19.140625 7.984375 19.921875 C 6.65625 19.523438 5.453125 18.828125 4.453125 17.914062 Z M 9.847656 19.722656 C 9.105469 18.996094 8.246094 17.980469 7.6875 16.777344 C 8.382812 16.636719 9.105469 16.550781 9.847656 16.519531 Z M 9.847656 15.03125 C 8.855469 15.070312 8.035156 15.191406 7.164062 15.378906 C 6.828125 14.308594 6.628906 13.167969 6.570312 11.929688 L 9.847656 11.929688 Z M 9.847656 10.445312 L 6.570312 10.445312 C 6.632812 9.207031 6.832031 8.070312 7.171875 7 C 8.035156 7.1875 8.855469 7.300781 9.847656 7.335938 Z M 9.847656 5.851562 C 9.105469 5.816406 8.394531 5.734375 7.699219 5.597656 C 8.253906 4.394531 9.105469 3.382812 9.847656 2.65625 Z M 9.847656 5.851562 "
    fill="currentColor"
  />
<path
    d="M 17.945312 17.382812 C 17.945312 17.53125 18.003906 17.648438 18.117188 17.726562 C 18.234375 17.804688 18.40625 17.867188 18.640625 17.910156 L 18.640625 16.875 C 18.378906 16.90625 18.199219 16.960938 18.097656 17.050781 C 17.996094 17.136719 17.945312 17.25 17.945312 17.382812 Z M 17.945312 17.382812 "
    fill="currentColor"
  />
<path
    d="M 20 19.273438 C 19.890625 19.195312 19.722656 19.136719 19.496094 19.097656 L 19.496094 20.109375 C 19.941406 20.054688 20.164062 19.886719 20.164062 19.617188 C 20.164062 19.464844 20.109375 19.351562 20 19.273438 Z M 20 19.273438 "
    fill="currentColor"
  />
<path
    d="M 19.058594 13.554688 C 16.328125 13.554688 14.117188 15.765625 14.117188 18.496094 C 14.117188 21.226562 16.328125 23.4375 19.058594 23.4375 C 21.789062 23.4375 24 21.226562 24 18.496094 C 24 15.765625 21.789062 13.554688 19.058594 13.554688 Z M 20.867188 20.675781 C 20.546875 20.9375 20.089844 21.101562 19.496094 21.164062 L 19.496094 21.71875 L 18.640625 21.71875 L 18.640625 21.191406 C 18.289062 21.183594 17.957031 21.148438 17.648438 21.097656 C 17.335938 21.046875 17.078125 20.972656 16.875 20.878906 L 16.875 19.824219 C 17.015625 19.875 17.152344 19.917969 17.285156 19.957031 C 17.417969 19.996094 17.554688 20.027344 17.695312 20.054688 C 17.832031 20.082031 17.980469 20.101562 18.132812 20.117188 C 18.289062 20.132812 18.457031 20.144531 18.640625 20.148438 L 18.640625 18.96875 C 18.414062 18.9375 18.191406 18.894531 17.96875 18.835938 C 17.746094 18.78125 17.546875 18.699219 17.367188 18.585938 C 17.191406 18.476562 17.046875 18.328125 16.933594 18.144531 C 16.824219 17.960938 16.765625 17.726562 16.765625 17.433594 C 16.765625 17.199219 16.808594 16.988281 16.894531 16.800781 C 16.984375 16.617188 17.105469 16.457031 17.269531 16.324219 C 17.429688 16.1875 17.625 16.082031 17.855469 15.996094 C 18.089844 15.914062 18.347656 15.859375 18.640625 15.824219 L 18.640625 15.269531 L 19.496094 15.269531 L 19.496094 15.808594 C 19.757812 15.824219 20.023438 15.851562 20.296875 15.898438 C 20.566406 15.941406 20.816406 16.003906 21.042969 16.082031 L 21.042969 17.148438 C 20.488281 16.96875 19.972656 16.871094 19.496094 16.847656 L 19.496094 18.042969 C 19.722656 18.078125 19.945312 18.125 20.167969 18.1875 C 20.386719 18.246094 20.585938 18.332031 20.757812 18.445312 C 20.933594 18.558594 21.074219 18.707031 21.183594 18.886719 C 21.292969 19.070312 21.347656 19.304688 21.347656 19.59375 C 21.347656 20.054688 21.1875 20.414062 20.867188 20.675781 Z M 20.867188 20.675781 "
    fill="currentColor"
  />
</svg>
