<svg
  width="24"
  height="24"
  viewBox="0 0 24 24"
  fill="none"
  xmlns="http://www.w3.org/2000/svg"
>
<path
    opacity="0.3"
    d="M 15.238281 10.417969 C 15.238281 12.207031 13.789062 13.65625 12 13.65625 C 10.210938 13.65625 8.761719 12.207031 8.761719 10.417969 C 8.761719 8.628906 10.210938 7.175781 12 7.175781 C 13.789062 7.175781 15.238281 8.628906 15.238281 10.417969 Z M 15.238281 10.417969 "
    fill="currentColor"
  />
<path
    d="M 17.128906 19.941406 C 17.074219 16.847656 14.800781 14.359375 12 14.359375 C 9.199219 14.359375 6.925781 16.847656 6.871094 19.941406 Z M 17.128906 19.941406 "
    fill="currentColor"
  />
<path
    opacity="0.3"
    d="M 6.285156 6.492188 C 6.285156 7.835938 5.195312 8.921875 3.851562 8.921875 C 2.507812 8.921875 1.417969 7.835938 1.417969 6.492188 C 1.417969 5.144531 2.507812 4.058594 3.851562 4.058594 C 5.195312 4.058594 6.285156 5.144531 6.285156 6.492188 Z M 6.285156 6.492188 "
    fill="currentColor"
  />
<path
    d="M 7.707031 13.792969 C 7.664062 11.46875 5.957031 9.597656 3.851562 9.597656 C 1.75 9.597656 0.0429688 11.46875 0 13.792969 Z M 7.707031 13.792969 "
    fill="currentColor"
  />
<path
    opacity="0.3"
    d="M 22.582031 6.492188 C 22.582031 7.835938 21.492188 8.921875 20.148438 8.921875 C 18.804688 8.921875 17.714844 7.835938 17.714844 6.492188 C 17.714844 5.144531 18.804688 4.058594 20.148438 4.058594 C 21.492188 4.058594 22.582031 5.144531 22.582031 6.492188 Z M 22.582031 6.492188 "
    fill="currentColor"
  />
<path
    d="M 24 13.792969 C 23.957031 11.46875 22.25 9.597656 20.148438 9.597656 C 18.042969 9.597656 16.335938 11.46875 16.292969 13.792969 Z M 24 13.792969 "
    fill="currentColor"
  />
</svg>
