<svg
  width="40"
  height="40"
  viewBox="0 0 40 40"
  fill="none"
  xmlns="http://www.w3.org/2000/svg"
>
<path
    opacity="0.3"
    d="M 35 20 C 35 28.285156 28.285156 35 20 35 C 11.714844 35 5 28.285156 5 20 C 5 11.714844 11.714844 5 20 5 C 28.285156 5 35 11.714844 35 20 Z M 35 20 "
    fill="currentColor"
  />
<path
    d="M 20 3.75 C 11.023438 3.75 3.75 11.027344 3.75 20 C 3.75 28.976562 11.023438 36.25 20 36.25 C 28.976562 36.25 36.25 28.976562 36.25 20 C 36.238281 11.03125 28.96875 3.761719 20 3.75 Z M 20 33.75 C 12.40625 33.75 6.25 27.59375 6.25 20 C 6.25 12.40625 12.40625 6.25 20 6.25 C 27.59375 6.25 33.75 12.40625 33.75 20 C 33.742188 27.589844 27.589844 33.742188 20 33.75 Z M 20 33.75 "
    fill="currentColor"
  />
<path
    d="M 25.882812 14.117188 C 25.394531 13.628906 24.605469 13.628906 24.117188 14.117188 L 20 18.230469 L 15.882812 14.117188 C 15.394531 13.628906 14.605469 13.628906 14.117188 14.117188 C 13.628906 14.605469 13.628906 15.394531 14.117188 15.882812 L 18.230469 20 L 14.117188 24.117188 C 13.628906 24.605469 13.628906 25.394531 14.117188 25.882812 C 14.605469 26.371094 15.394531 26.371094 15.882812 25.882812 L 20 21.769531 L 24.117188 25.882812 C 24.605469 26.371094 25.394531 26.371094 25.882812 25.882812 C 26.371094 25.394531 26.371094 24.605469 25.882812 24.117188 L 21.769531 20 L 25.882812 15.882812 C 26.371094 15.394531 26.371094 14.605469 25.882812 14.117188 Z M 25.882812 14.117188 "
    fill="currentColor"
  />
</svg>
