<svg
  width="24"
  height="24"
  viewBox="0 0 24 24"
  fill="none"
  xmlns="http://www.w3.org/2000/svg"
>
<path
    d="M 0 11.617188 C 0 7.855469 3.050781 4.804688 6.8125 4.800781 L 17.183594 4.800781 C 20.949219 4.800781 24 7.851562 24 11.617188 C 24 15.382812 20.949219 18.433594 17.183594 18.433594 L 6.816406 18.433594 C 3.054688 18.433594 0.00390625 15.382812 0 11.621094 Z M 6.816406 16.160156 C 9.324219 16.15625 11.355469 14.125 11.355469 11.617188 C 11.355469 9.109375 9.320312 7.074219 6.8125 7.074219 C 4.304688 7.074219 2.273438 9.109375 2.273438 11.617188 C 2.273438 12.871094 2.78125 14.007812 3.601562 14.828125 C 4.421875 15.652344 5.558594 16.160156 6.816406 16.160156 Z M 6.816406 16.160156 "
    fill="currentColor"
  />
</svg>
