<svg
  width="24"
  height="24"
  viewBox="0 0 24 24"
  fill="none"
  xmlns="http://www.w3.org/2000/svg"
>
<path
    d="M 24 11.617188 C 24 15.378906 20.949219 18.429688 17.1875 18.433594 L 6.816406 18.433594 C 3.050781 18.433594 0 15.382812 0 11.617188 C 0 7.851562 3.050781 4.800781 6.816406 4.800781 L 17.183594 4.800781 C 20.945312 4.800781 23.996094 7.851562 24 11.613281 Z M 17.183594 7.070312 C 14.675781 7.074219 12.644531 9.105469 12.644531 11.613281 C 12.644531 14.121094 14.675781 16.15625 17.183594 16.15625 C 19.695312 16.15625 21.726562 14.121094 21.726562 11.613281 C 21.726562 10.363281 21.21875 9.226562 20.398438 8.40625 C 19.578125 7.582031 18.441406 7.070312 17.183594 7.070312 Z M 17.183594 7.070312 "
    fill="currentColor"
  />
</svg>
