<svg
  width="24"
  height="24"
  viewBox="0 0 24 24"
  fill="none"
  xmlns="http://www.w3.org/2000/svg"
>
<path
    d="M 19.28125 20.179688 L 23.765625 16.441406 C 23.90625 16.324219 23.925781 16.109375 23.808594 15.964844 L 23.375 15.445312 C 23.257812 15.304688 23.042969 15.285156 22.898438 15.402344 L 19.125 18.546875 L 17.546875 16.96875 C 17.417969 16.835938 17.203125 16.835938 17.070312 16.96875 L 16.59375 17.445312 C 16.460938 17.578125 16.460938 17.792969 16.59375 17.925781 L 18.824219 20.160156 C 18.945312 20.277344 19.148438 20.289062 19.28125 20.179688 Z M 11.929688 10.375 C 13.761719 10.375 15.246094 8.890625 15.246094 7.058594 C 15.246094 5.230469 13.761719 3.746094 11.929688 3.746094 C 10.101562 3.746094 8.617188 5.230469 8.617188 7.058594 C 8.617188 8.890625 10.101562 10.375 11.929688 10.375 Z M 13.65625 8.21875 C 13.492188 8.910156 12.792969 9.167969 11.949219 9.167969 C 11.109375 9.167969 10.40625 8.910156 10.242188 8.21875 Z M 17.578125 13.800781 L 17.578125 14.894531 C 17.578125 15.058594 17.425781 15.246094 17.277344 15.3125 C 16.707031 15.566406 15.125 16.089844 11.929688 16.089844 C 8.726562 16.089844 7.210938 15.5625 6.640625 15.308594 C 6.507812 15.25 6.421875 15.113281 6.421875 14.96875 L 6.421875 13.800781 C 6.421875 12.144531 7.648438 10.769531 9.269531 10.617188 C 10.015625 11.179688 10.925781 11.515625 11.929688 11.515625 C 12.933594 11.515625 13.851562 11.179688 14.601562 10.613281 C 16.242188 10.742188 17.578125 12.125 17.578125 13.800781 Z M 24 10.839844 L 24 11.488281 C 24 11.582031 23.886719 11.695312 23.800781 11.734375 C 23.460938 11.882812 22.511719 12.191406 20.621094 12.191406 C 18.730469 12.191406 17.769531 11.882812 17.433594 11.734375 C 17.34375 11.695312 17.238281 11.582031 17.238281 11.488281 L 17.238281 10.839844 C 17.238281 9.851562 18.035156 9.03125 19.003906 8.953125 C 19.445312 9.289062 20 9.488281 20.59375 9.488281 C 21.191406 9.488281 21.742188 9.285156 22.183594 8.953125 C 23.167969 9.015625 24 9.839844 24 10.839844 Z M 6.496094 11.734375 C 6.15625 11.882812 5.175781 12.191406 3.285156 12.191406 C 1.421875 12.191406 0.507812 11.894531 0.160156 11.738281 C 0.0703125 11.703125 0 11.589844 0 11.492188 L 0 10.839844 C 0 9.859375 0.710938 9.046875 1.671875 8.957031 C 2.113281 9.289062 2.648438 9.488281 3.242188 9.488281 C 3.839844 9.488281 4.382812 9.285156 4.824219 8.949219 C 5.824219 8.984375 6.761719 9.820312 6.761719 10.839844 L 6.761719 11.488281 C 6.761719 11.582031 6.582031 11.695312 6.496094 11.734375 Z M 3.246094 4.886719 C 2.160156 4.886719 1.285156 5.765625 1.285156 6.847656 C 1.285156 7.933594 2.160156 8.8125 3.246094 8.8125 C 4.328125 8.8125 5.207031 7.933594 5.207031 6.847656 C 5.207031 5.765625 4.328125 4.886719 3.246094 4.886719 Z M 3.246094 8.132812 C 2.738281 8.132812 2.3125 7.890625 2.214844 7.558594 L 4.277344 7.558594 C 4.175781 7.890625 3.753906 8.132812 3.246094 8.132812 Z M 20.617188 4.886719 C 19.53125 4.886719 18.65625 5.765625 18.65625 6.847656 C 18.65625 7.933594 19.53125 8.8125 20.617188 8.8125 C 21.699219 8.8125 22.578125 7.933594 22.578125 6.847656 C 22.578125 5.765625 21.699219 4.886719 20.617188 4.886719 Z M 20.617188 8.132812 C 20.109375 8.132812 19.683594 7.890625 19.585938 7.558594 L 21.648438 7.558594 C 21.546875 7.890625 21.125 8.132812 20.617188 8.132812 Z M 20.617188 8.132812 "
    fill="currentColor"
  />
</svg>
